<svg id="visual" viewBox="0 0 900 600" width="900" height="600" xmlns="http://www.w3.org/2000/svg" xmlns:xlink="http://www.w3.org/1999/xlink" version="1.1"><rect x="0" y="0" width="900" height="600" fill="#002233"></rect><path d="M0 524L11.5 517.2C23 510.3 46 496.7 69 479.2C92 461.7 115 440.3 138.2 439.5C161.3 438.7 184.7 458.3 207.8 474.7C231 491 254 504 277 507.3C300 510.7 323 504.3 346 490.7C369 477 392 456 415.2 455.5C438.3 455 461.7 475 484.8 480.8C508 486.7 531 478.3 554 484.7C577 491 600 512 623 515.2C646 518.3 669 503.7 692.2 491.2C715.3 478.7 738.7 468.3 761.8 468.7C785 469 808 480 831 488.7C854 497.3 877 503.7 888.5 506.8L900 510L900 601L888.5 601C877 601 854 601 831 601C808 601 785 601 761.8 601C738.7 601 715.3 601 692.2 601C669 601 646 601 623 601C600 601 577 601 554 601C531 601 508 601 484.8 601C461.7 601 438.3 601 415.2 601C392 601 369 601 346 601C323 601 300 601 277 601C254 601 231 601 207.8 601C184.7 601 161.3 601 138.2 601C115 601 92 601 69 601C46 601 23 601 11.5 601L0 601Z" fill="#0066FF" stroke-linecap="round" stroke-linejoin="miter"></path></svg>