<svg id="visual" viewBox="0 0 900 600" width="900" height="600" xmlns="http://www.w3.org/2000/svg" xmlns:xlink="http://www.w3.org/1999/xlink" version="1.1"><rect x="0" y="0" width="900" height="600" fill="#002233"></rect><path d="M0 520L21.5 509.8C43 499.7 86 479.3 128.8 458.2C171.7 437 214.3 415 257.2 417.5C300 420 343 447 385.8 451.8C428.7 456.7 471.3 439.3 514.2 433.5C557 427.7 600 433.3 642.8 431.7C685.7 430 728.3 421 771.2 419.2C814 417.3 857 422.7 878.5 425.3L900 428L900 601L878.5 601C857 601 814 601 771.2 601C728.3 601 685.7 601 642.8 601C600 601 557 601 514.2 601C471.3 601 428.7 601 385.8 601C343 601 300 601 257.2 601C214.3 601 171.7 601 128.8 601C86 601 43 601 21.5 601L0 601Z" fill="#0066FF" stroke-linecap="round" stroke-linejoin="miter"></path></svg>